<svg id="Layer_1" data-name="Layer 1" xmlns="http://www.w3.org/2000/svg" xmlns:xlink="http://www.w3.org/1999/xlink" viewBox="0 0 100 87.8" width='45' height="40" > 
    <defs>
      <style>
        .cls-1 { fill: none; }
        .cls-2 { clip-path: url(#clip-path); }
        .cls-3 { fill: #a42522; }
        .cls-4 { fill: #dd392c; }
        .cls-5 { fill: #fff; }
        .cls-6 { fill: #741113; }
        .cls-7 { fill: #ad2824; }
      </style>
      <clipPath id="clip-path">
        <rect class="cls-1" y="5.8" width="95.7" height="82"></rect>
      </clipPath>
    </defs>
    <g>
      <g class="cls-2">
        <g>
          <path class="cls-3" d="M92,69c-5.1,2.7-31.5,13.5-37.2,16.5s-8.8,2.9-13.2.8S9,72.7,3.9,70.3C1.4,69.1,0,68.1,0,67.1V57.4s36.6-8,42.6-10.1,8-2.2,13-.4S90.7,54.2,95.7,56v9.5C95.7,66.6,94.6,67.6,92,69Z"></path>
          <path class="cls-4" d="M92,59.3C86.9,62,60.5,72.8,54.8,75.8s-8.8,2.9-13.2.8S9,63.1,3.9,60.6s-5.2-4.1-.2-6,33-12.9,38.9-15,8-2.2,13-.4S86.9,51.5,91.9,53.3s5.2,3.4.1,6Z"></path>
          <path class="cls-3" d="M92,53.2c-5.1,2.7-31.5,13.5-37.2,16.5s-8.8,2.9-13.2.8S9,57,3.9,54.5C1.4,53.3,0,52.3,0,51.3V41.6s36.6-8,42.6-10.1,8-2.2,13-.4,35.1,7.3,40.1,9.1v9.6c0,1.1-1.1,2.1-3.7,3.4Z"></path>
          <path class="cls-4" d="M92,43.5C86.9,46.2,60.5,57,54.8,60s-8.8,2.9-13.2.8S9,47.3,3.9,44.9s-5.2-4.1-.2-6,33-13,38.9-15.1,8-2.2,13-.4S86.9,35.7,91.9,37.5s5.2,3.4.1,6Z"></path>
          <path class="cls-3" d="M92,36.9c-5.1,2.7-31.5,13.5-37.2,16.5s-8.8,2.9-13.2.8S9,40.6,3.9,38.2C1.4,37,0,36,0,35V25.3s36.6-8,42.6-10.1,8-2.2,13-.4,35.1,7.3,40.1,9.1v9.5c0,1.1-1.1,2.1-3.7,3.5Z"></path>
          <path class="cls-4" d="M92,27.2c-5.1,2.7-31.5,13.5-37.2,16.5s-8.8,2.9-13.2.8S9,30.9,3.9,28.5s-5.2-4.1-.2-6S36.7,9.6,42.6,7.4s8-2.2,13-.3S86.9,19.4,91.9,21.2s5.2,3.4.1,6Z"></path>
        </g>
      </g>
      <polygon class="cls-5" points="49.4 13.4 55.7 11.4 54 15.5 60.4 17.9 52.1 18.7 50.3 23.2 47.3 18.2 37.7 17.4 44.8 14.8 42.7 10.8 49.4 13.4 49.4 13.4"></polygon>
      <polygon class="cls-5" points="49.8 39.5 34.3 33.1 56.5 29.7 49.8 39.5 49.8 39.5"></polygon>
      <path class="cls-5" d="M28.3,20.4c6.5,0,11.8,2,11.8,4.6s-5.3,4.6-11.8,4.6-11.8-2-11.8-4.6S21.8,20.4,28.3,20.4Z"></path>
      <polygon class="cls-6" points="70.2 19.1 83.3 24.3 70.2 29.5 70.2 19.1 70.2 19.1"></polygon>
      <polygon class="cls-7" points="70.2 19.1 70.2 29.5 68.8 30 55.7 24.8 70.2 19.1 70.2 19.1"></polygon> 
    </g>
  </svg>